# Blender v2.79 (sub 0) OBJ File: ''
# www.blender.org
v 2.065153 0.164666 -0.250000
v 2.065153 0.164666 0.250000
v 1.655577 -0.122122 0.250000
v 1.655577 -0.122122 -0.250000
v 0.344423 2.872122 -0.250000
v 0.344423 2.872122 0.250000
v -0.065153 2.585334 0.250000
v -0.065153 2.585334 -0.250000
v -0.156214 2.756887 -0.122029
v 0.341883 2.749320 -0.164945
v 0.306186 2.960899 -0.616564
v -0.191911 2.968467 -0.573648
v -0.306186 -0.210900 -1.383436
v 0.191912 -0.218467 -1.426352
v 0.156214 -0.006887 -1.877971
v -0.341883 0.000681 -1.835055
v -0.076344 2.263636 -0.336425
v -0.546361 2.328779 -0.178819
v -0.394993 2.700990 0.118749
v 0.075024 2.635847 -0.038857
v 0.394993 0.049010 1.881251
v -0.075024 0.114153 2.038857
v 0.076344 0.486364 2.336425
v 0.546362 0.421221 2.178819
v 0.072834 2.263636 -0.199445
v 0.254222 2.328779 -0.660807
v -0.071026 2.700990 -0.736125
v -0.252414 2.635847 -0.274764
v -1.928974 0.049010 -1.263875
v -1.747586 0.114153 -1.725236
v -2.072834 0.486364 -1.800555
v -2.254222 0.421221 -1.339193
v 0.302865 2.263636 -0.307252
v 0.066035 2.328779 -0.742761
v -0.200727 2.700990 -0.542020
v 0.036102 2.635847 -0.106511
v -1.799273 0.049010 0.542020
v -2.036102 0.114153 0.106511
v -2.302865 0.486364 0.307252
v -2.066036 0.421221 0.742761
v -1.900000 0.000000 1.900000
v 1.900000 0.000000 1.900000
v -1.900000 0.000000 -1.900000
v 1.900000 0.000000 -1.900000
v -1.900000 0.000000 0.000000
v 0.000000 0.000000 1.900000
v 1.900000 0.000000 0.000000
v 0.000000 0.000000 -1.900000
v 0.000000 0.500000 0.000000
v 3.432000 0.000000 -0.000000
v 3.387883 0.135778 -0.000000
v 3.272383 0.219694 -0.000000
v 3.129617 0.219694 -0.000000
v 3.014117 0.135778 -0.000000
v 2.970000 0.000000 -0.000000
v 2.776546 0.000000 -2.017279
v 2.740855 0.135778 -1.991348
v 2.647413 0.219694 -1.923458
v 2.531914 0.219694 -1.839543
v 2.438472 0.135778 -1.771654
v 2.402781 0.000000 -1.745722
v 1.060547 0.000000 -3.264026
v 1.046914 0.135778 -3.222068
v 1.011223 0.219694 -3.112221
v 0.967105 0.219694 -2.976443
v 0.931414 0.135778 -2.866596
v 0.917781 0.000000 -2.824638
v -1.060547 0.000000 -3.264026
v -1.046914 0.135778 -3.222068
v -1.011222 0.219694 -3.112221
v -0.967105 0.219694 -2.976443
v -0.931414 0.135778 -2.866596
v -0.917781 0.000000 -2.824638
v -2.776547 0.000000 -2.017278
v -2.740855 0.135778 -1.991347
v -2.647414 0.219694 -1.923458
v -2.531914 0.219694 -1.839542
v -2.438473 0.135778 -1.771653
v -2.402781 0.000000 -1.745722
v -3.432000 0.000000 -0.000000
v -3.387883 0.135778 -0.000000
v -3.272383 0.219694 -0.000000
v -3.129617 0.219694 -0.000000
v -3.014117 0.135778 -0.000000
v -2.970000 0.000000 -0.000000
v -2.776547 0.000000 2.017278
v -2.740855 0.135778 1.991347
v -2.647414 0.219694 1.923458
v -2.531914 0.219694 1.839542
v -2.438473 0.135778 1.771653
v -2.402781 0.000000 1.745722
v -1.060547 0.000000 3.264026
v -1.046914 0.135778 3.222068
v -1.011222 0.219694 3.112221
v -0.967105 0.219694 2.976443
v -0.931414 0.135778 2.866596
v -0.917781 0.000000 2.824638
v 1.060547 0.000000 3.264026
v 1.046914 0.135778 3.222068
v 1.011223 0.219694 3.112221
v 0.967105 0.219694 2.976443
v 0.931414 0.135778 2.866596
v 0.917781 0.000000 2.824638
v 2.776546 0.000000 2.017281
v 2.740854 0.135778 1.991349
v 2.647413 0.219694 1.923460
v 2.531913 0.219694 1.839544
v 2.438471 0.135778 1.771655
v 2.402780 0.000000 1.745723
vt 0.865403 0.179883
vt 0.819113 0.235545
vt 0.819113 0.179883
vt 0.014837 0.880078
vt 0.220683 0.824416
vt 0.220683 0.880078
vt 0.376255 0.547780
vt 0.542592 0.523661
vt 0.582102 0.547780
vt 0.336746 0.523661
vt 0.542592 0.467999
vt 0.773312 0.294327
vt 0.939649 0.318446
vt 0.733803 0.318446
vt 0.874770 0.099435
vt 0.819448 0.150209
vt 0.819113 0.099435
vt 0.733803 0.263204
vt 0.789440 0.100885
vt 0.789440 0.264654
vt 0.897572 0.348119
vt 0.774348 0.378684
vt 0.733803 0.348119
vt 0.500515 0.828354
vt 0.338196 0.883991
vt 0.336746 0.828354
vt 0.926929 0.045402
vt 0.803705 0.014837
vt 0.967474 0.014837
vt 0.070054 0.947995
vt 0.019939 0.909751
vt 0.075156 0.909751
vt 0.531638 0.833456
vt 0.569882 0.883571
vt 0.531638 0.888673
vt 0.473674 0.069762
vt 0.727812 0.014837
vt 0.733487 0.069762
vt 0.634972 0.950440
vt 0.862362 0.929527
vt 0.894785 0.950440
vt 0.596558 0.716976
vt 0.342420 0.662051
vt 0.602233 0.662051
vt 0.634972 0.828354
vt 0.862361 0.849268
vt 0.602549 0.849267
vt 0.877577 0.523217
vt 0.915821 0.473101
vt 0.915821 0.528319
vt 0.873452 0.784894
vt 0.923567 0.746650
vt 0.928669 0.784894
vt 0.047260 0.522927
vt 0.301397 0.467999
vt 0.307072 0.522924
vt 0.634972 0.899854
vt 0.862362 0.878941
vt 0.894785 0.899854
vt 0.596559 0.632378
vt 0.342420 0.577453
vt 0.602233 0.577453
vt 0.274649 0.543838
vt 0.014837 0.543841
vt 0.109931 0.909751
vt 0.160047 0.947995
vt 0.104829 0.947995
vt 0.900178 0.218127
vt 0.950293 0.179883
vt 0.955395 0.218127
vt 0.020511 0.628439
vt 0.274649 0.573514
vt 0.280324 0.628439
vt 0.242152 0.934577
vt 0.469541 0.913664
vt 0.501965 0.934577
vt 0.274649 0.713038
vt 0.020511 0.658112
vt 0.280324 0.658112
vt 0.242152 0.964250
vt 0.469541 0.985164
vt 0.209728 0.985163
vt 0.438326 0.226581
vt 0.226581 0.438326
vt 0.226581 0.226581
vt 0.014837 0.226581
vt 0.014837 0.438326
vt 0.226581 0.014837
vt 0.014837 0.014837
vt 0.336746 0.746650
vt 0.571358 0.752658
vt 0.338263 0.752657
vt 0.342236 0.765107
vt 0.562473 0.780223
vt 0.347148 0.780222
vt 0.351121 0.792672
vt 0.556982 0.798681
vt 0.352639 0.798680
vt 0.704129 0.396580
vt 0.469517 0.390572
vt 0.702612 0.390573
vt 0.698639 0.378123
vt 0.478402 0.363007
vt 0.693727 0.363008
vt 0.689754 0.350558
vt 0.483893 0.344549
vt 0.688236 0.344550
vt 0.868036 0.711188
vt 0.633424 0.705180
vt 0.866518 0.705181
vt 0.862545 0.692731
vt 0.637397 0.692731
vt 0.857634 0.677615
vt 0.642309 0.677615
vt 0.853660 0.665166
vt 0.646282 0.665165
vt 0.852143 0.659157
vt 0.631906 0.629484
vt 0.866518 0.623476
vt 0.868035 0.629484
vt 0.633424 0.623476
vt 0.862544 0.611026
vt 0.637397 0.611026
vt 0.857633 0.595910
vt 0.646282 0.583461
vt 0.853660 0.583461
vt 0.647800 0.577453
vt 0.852142 0.577453
vt 0.014837 0.794742
vt 0.249447 0.788734
vt 0.250965 0.794743
vt 0.016354 0.788734
vt 0.245473 0.776284
vt 0.025239 0.761169
vt 0.240562 0.761169
vt 0.029212 0.748720
vt 0.236589 0.748719
vt 0.235071 0.742711
vt 0.467999 0.233171
vt 0.702612 0.227163
vt 0.704130 0.233171
vt 0.469517 0.227163
vt 0.698639 0.214714
vt 0.473490 0.214713
vt 0.693728 0.199598
vt 0.482375 0.187148
vt 0.689754 0.187148
vt 0.483893 0.181139
vt 0.688237 0.181140
vt 0.467999 0.262844
vt 0.702610 0.268852
vt 0.469517 0.268852
vt 0.473490 0.281301
vt 0.693725 0.296417
vt 0.478402 0.296417
vt 0.689752 0.308867
vt 0.482375 0.308867
vt 0.483893 0.314876
vt 0.611775 0.467999
vt 0.846386 0.474007
vt 0.613292 0.474007
vt 0.842413 0.486457
vt 0.617266 0.486457
vt 0.622177 0.501572
vt 0.833528 0.514022
vt 0.626150 0.514022
vt 0.627668 0.520030
vt 0.838677 0.746650
vt 0.604066 0.752657
vt 0.602549 0.746650
vt 0.833186 0.765107
vt 0.608040 0.765107
vt 0.828274 0.780223
vt 0.612951 0.780223
vt 0.616924 0.792673
vt 0.824301 0.792672
vt 0.618442 0.798681
vt 0.704130 0.099435
vt 0.469517 0.105443
vt 0.467999 0.099435
vt 0.698639 0.117893
vt 0.473490 0.117893
vt 0.478401 0.133008
vt 0.689754 0.145458
vt 0.482375 0.145458
vt 0.483892 0.151465
vt 0.865403 0.235545
vt 0.014837 0.824416
vt 0.336746 0.467999
vt 0.979159 0.294327
vt 0.875104 0.150209
vt 0.733803 0.099435
vt 0.938117 0.378684
vt 0.501965 0.883991
vt 0.763160 0.045402
vt 0.014837 0.947995
vt 0.569882 0.828354
vt 0.467999 0.014837
vt 0.602549 0.929527
vt 0.336746 0.716976
vt 0.894785 0.828354
vt 0.877577 0.467999
vt 0.868350 0.746650
vt 0.041585 0.468002
vt 0.602549 0.878941
vt 0.336746 0.632378
vt 0.165149 0.909751
vt 0.895076 0.179883
vt 0.014837 0.573514
vt 0.209728 0.913664
vt 0.014837 0.713037
vt 0.501964 0.964250
vt 0.438326 0.438326
vt 0.438326 0.014837
vt 0.572876 0.746650
vt 0.567384 0.765107
vt 0.558500 0.792673
vt 0.467999 0.396580
vt 0.473490 0.378122
vt 0.482375 0.350557
vt 0.631906 0.711188
vt 0.647800 0.659157
vt 0.642309 0.595911
vt 0.020328 0.776285
vt 0.030730 0.742712
vt 0.478402 0.199597
vt 0.704127 0.262844
vt 0.698637 0.281302
vt 0.688234 0.314875
vt 0.847904 0.467999
vt 0.837501 0.501572
vt 0.832010 0.520030
vt 0.837159 0.752658
vt 0.822783 0.798680
vt 0.702612 0.105443
vt 0.693727 0.133008
vt 0.688236 0.151466
vn -0.5736 0.8192 0.0000
vn 0.8440 0.5364 0.0000
vn -0.0000 -0.0000 1.0000
vn -0.8440 -0.5364 -0.0000
vn 0.0000 0.0000 -1.0000
vn 0.0500 0.9059 0.4205
vn 0.0730 -0.3932 0.9165
vn 0.9963 -0.0141 -0.0853
vn -0.0730 0.3932 -0.9165
vn -0.9963 0.0141 0.0853
vn -0.1571 0.6549 -0.7392
vn 0.1571 -0.6549 0.7392
vn -0.3114 -0.7047 -0.6375
vn -0.9384 0.1235 0.3228
vn 0.3114 0.7047 0.6375
vn 0.9384 -0.1235 -0.3228
vn 0.6673 0.6549 0.3548
vn -0.6673 -0.6549 -0.3548
vn 0.6886 -0.7047 0.1712
vn 0.3559 0.1235 -0.9263
vn -0.6886 0.7047 -0.1712
vn -0.3559 -0.1235 0.9263
vn 0.7007 0.6549 -0.2831
vn -0.7007 -0.6549 0.2831
vn 0.5738 -0.7047 -0.4174
vn -0.4808 0.1235 -0.8681
vn -0.5738 0.7047 0.4174
vn 0.4808 -0.1235 0.8681
vn 0.2466 0.9372 -0.2466
vn 0.0000 1.0000 0.0000
vn 0.2466 0.9372 0.2466
vn 0.9087 0.2952 -0.2952
vn 0.5773 0.7947 -0.1876
vn -0.5773 0.7947 0.1876
vn -0.9087 0.2952 0.2952
vn 0.5616 0.2952 -0.7730
vn 0.3568 0.7947 -0.4911
vn -0.3568 0.7947 0.4911
vn -0.5616 0.2952 0.7730
vn 0.0000 0.2952 -0.9554
vn 0.0000 0.7947 -0.6071
vn 0.0000 0.7947 0.6071
vn 0.0000 0.2952 0.9554
vn -0.5616 0.2952 -0.7730
vn -0.3568 0.7947 -0.4911
vn 0.3568 0.7947 0.4911
vn 0.5616 0.2952 0.7730
vn -0.9087 0.2952 -0.2952
vn -0.5774 0.7947 -0.1876
vn 0.5774 0.7947 0.1876
vn 0.9087 0.2952 0.2952
vn -0.5774 0.7947 0.1876
vn -0.2466 0.9372 -0.2466
vn -0.2466 0.9372 0.2466
vn 0.5774 0.7947 -0.1876
vn -0.5773 0.7947 -0.1876
vn 0.5773 0.7947 0.1876
vn -0.9087 0.2953 0.2952
s off
f 8/1/1 6/2/1 5/3/1
f 5/4/2 2/5/2 1/6/2
f 6/7/3 3/8/3 2/9/3
f 7/10/4 4/11/4 3/8/4
f 5/12/5 4/13/5 8/14/5
f 10/15/6 12/16/6 9/17/6
f 9/18/7 14/19/7 10/20/7
f 14/21/8 11/22/8 10/23/8
f 15/24/9 12/25/9 11/26/9
f 13/27/10 12/28/10 16/29/10
f 17/30/11 19/31/11 20/32/11
f 21/33/12 23/34/12 22/35/12
f 21/36/13 18/37/13 17/38/13
f 22/39/14 19/40/14 18/41/14
f 19/42/15 24/43/15 20/44/15
f 21/45/16 20/46/16 24/47/16
f 25/48/17 27/49/17 28/50/17
f 29/51/18 31/52/18 30/53/18
f 29/54/19 26/55/19 25/56/19
f 30/57/20 27/58/20 26/59/20
f 27/60/21 32/61/21 28/62/21
f 29/54/22 28/63/22 32/64/22
f 33/65/23 35/66/23 36/67/23
f 37/68/24 39/69/24 38/70/24
f 37/71/25 34/72/25 33/73/25
f 38/74/26 35/75/26 34/76/26
f 35/77/27 40/78/27 36/79/27
f 37/80/28 36/81/28 40/82/28
f 47/83/29 48/84/29 49/85/29
f 45/86/30 48/84/30 43/87/30
f 46/88/30 45/86/30 41/89/30
f 46/88/31 47/83/31 49/85/31
f 50/90/32 57/91/32 51/92/32
f 57/91/33 52/93/33 51/92/33
f 52/93/30 59/94/30 53/95/30
f 59/94/34 54/96/34 53/95/34
f 54/96/35 61/97/35 55/98/35
f 56/99/36 63/100/36 57/101/36
f 63/100/37 58/102/37 57/101/37
f 58/102/30 65/103/30 59/104/30
f 65/103/38 60/105/38 59/104/38
f 60/105/39 67/106/39 61/107/39
f 62/108/40 69/109/40 63/110/40
f 69/109/41 64/111/41 63/110/41
f 70/112/30 65/113/30 64/111/30
f 71/114/42 66/115/42 65/113/42
f 72/116/43 67/117/43 66/115/43
f 74/118/44 69/119/44 68/120/44
f 75/121/45 70/122/45 69/119/45
f 76/123/30 71/124/30 70/122/30
f 71/124/46 78/125/46 72/126/46
f 72/126/47 79/127/47 73/128/47
f 80/129/48 75/130/48 74/131/48
f 81/132/49 76/133/49 75/130/49
f 76/133/30 83/134/30 77/135/30
f 77/135/50 84/136/50 78/137/50
f 84/136/51 79/138/51 78/137/51
f 86/139/35 81/140/35 80/141/35
f 87/142/52 82/143/52 81/140/52
f 88/144/30 83/145/30 82/143/30
f 83/145/33 90/146/33 84/147/33
f 84/147/32 91/148/32 85/149/32
f 86/150/39 93/151/39 87/152/39
f 93/151/38 88/153/38 87/152/38
f 88/153/30 95/154/30 89/155/30
f 89/155/37 96/156/37 90/157/37
f 96/156/36 91/158/36 90/157/36
f 92/159/43 99/160/43 93/161/43
f 93/161/42 100/162/42 94/163/42
f 100/162/30 95/164/30 94/163/30
f 95/164/41 102/165/41 96/166/41
f 102/165/40 97/167/40 96/166/40
f 104/168/47 99/169/47 98/170/47
f 99/169/46 106/171/46 100/172/46
f 100/172/30 107/173/30 101/174/30
f 107/173/45 102/175/45 101/174/45
f 108/176/44 103/177/44 102/175/44
f 50/178/51 105/179/51 104/180/51
f 105/179/50 52/181/50 106/182/50
f 52/181/30 107/183/30 106/182/30
f 107/183/49 54/184/49 108/185/49
f 54/184/48 109/186/48 108/185/48
f 8/1/1 7/187/1 6/2/1
f 5/4/2 6/188/2 2/5/2
f 6/7/3 7/10/3 3/8/3
f 7/10/4 8/189/4 4/11/4
f 5/12/5 1/190/5 4/13/5
f 10/15/6 11/191/6 12/16/6
f 9/18/7 13/192/7 14/19/7
f 14/21/8 15/193/8 11/22/8
f 15/24/9 16/194/9 12/25/9
f 13/27/10 9/195/10 12/28/10
f 17/30/11 18/196/11 19/31/11
f 21/33/12 24/197/12 23/34/12
f 21/36/13 22/198/13 18/37/13
f 22/39/14 23/199/14 19/40/14
f 19/42/15 23/200/15 24/43/15
f 21/45/16 17/201/16 20/46/16
f 25/48/17 26/202/17 27/49/17
f 29/51/18 32/203/18 31/52/18
f 29/54/19 30/204/19 26/55/19
f 30/57/20 31/205/20 27/58/20
f 27/60/21 31/206/21 32/61/21
f 29/54/22 25/56/22 28/63/22
f 33/65/23 34/207/23 35/66/23
f 37/68/24 40/208/24 39/69/24
f 37/71/25 38/209/25 34/72/25
f 38/74/26 39/210/26 35/75/26
f 35/77/27 39/211/27 40/78/27
f 37/80/28 33/212/28 36/81/28
f 47/83/30 44/213/30 48/84/30
f 45/86/53 49/85/53 48/84/53
f 46/88/54 49/85/54 45/86/54
f 46/88/30 42/214/30 47/83/30
f 50/90/32 56/215/32 57/91/32
f 57/91/55 58/216/55 52/93/55
f 52/93/30 58/216/30 59/94/30
f 59/94/52 60/217/52 54/96/52
f 54/96/35 60/217/35 61/97/35
f 56/99/36 62/218/36 63/100/36
f 63/100/37 64/219/37 58/102/37
f 58/102/30 64/219/30 65/103/30
f 65/103/38 66/220/38 60/105/38
f 60/105/39 66/220/39 67/106/39
f 62/108/40 68/221/40 69/109/40
f 69/109/41 70/112/41 64/111/41
f 70/112/30 71/114/30 65/113/30
f 71/114/42 72/116/42 66/115/42
f 72/116/43 73/222/43 67/117/43
f 74/118/44 75/121/44 69/119/44
f 75/121/45 76/123/45 70/122/45
f 76/123/30 77/223/30 71/124/30
f 71/124/46 77/223/46 78/125/46
f 72/126/47 78/125/47 79/127/47
f 80/129/48 81/132/48 75/130/48
f 81/132/56 82/224/56 76/133/56
f 76/133/30 82/224/30 83/134/30
f 77/135/57 83/134/57 84/136/57
f 84/136/51 85/225/51 79/138/51
f 86/139/58 87/142/58 81/140/58
f 87/142/52 88/144/52 82/143/52
f 88/144/30 89/226/30 83/145/30
f 83/145/55 89/226/55 90/146/55
f 84/147/32 90/146/32 91/148/32
f 86/150/39 92/227/39 93/151/39
f 93/151/38 94/228/38 88/153/38
f 88/153/30 94/228/30 95/154/30
f 89/155/37 95/154/37 96/156/37
f 96/156/36 97/229/36 91/158/36
f 92/159/43 98/230/43 99/160/43
f 93/161/42 99/160/42 100/162/42
f 100/162/30 101/231/30 95/164/30
f 95/164/41 101/231/41 102/165/41
f 102/165/40 103/232/40 97/167/40
f 104/168/47 105/233/47 99/169/47
f 99/169/46 105/233/46 106/171/46
f 100/172/30 106/171/30 107/173/30
f 107/173/45 108/176/45 102/175/45
f 108/176/44 109/234/44 103/177/44
f 50/178/51 51/235/51 105/179/51
f 105/179/57 51/235/57 52/181/57
f 52/181/30 53/236/30 107/183/30
f 107/183/56 53/236/56 54/184/56
f 54/184/48 55/237/48 109/186/48
