# Blender v2.79 (sub 0) OBJ File: ''
# www.blender.org
v 0.000000 0.000000 -0.200000
v -0.910651 1.942552 0.070232
v 0.190211 0.000000 -0.061803
v 0.064152 1.499089 -0.073045
v 0.117557 0.000000 0.161803
v -0.165345 1.340787 0.029768
v -0.117557 0.000000 0.161803
v -0.090736 1.458403 0.029768
v -0.190211 0.000000 -0.061803
v -0.836042 2.060169 0.070232
v 0.000000 2.000000 -0.088754
v -0.836042 2.060169 0.070232
v -0.910651 1.942552 0.070232
v -0.090736 1.458403 0.029768
v -0.165345 1.340787 0.029768
v 0.064152 1.499089 -0.073045
v 0.069620 1.409028 0.033065
v 0.059685 2.154654 0.626566
v 0.065153 2.064593 0.732676
v 0.896251 1.484205 0.070232
v 0.790000 1.574265 0.070232
v 0.197797 0.828640 0.029768
v 0.091546 0.918700 0.029768
v 0.064152 1.448988 -0.102729
v 0.069620 1.571943 -0.037519
v 0.059685 1.991739 -0.893072
v 0.065153 2.114694 -0.827862
v 0.089488 2.000000 -0.061803
v 0.117557 2.000000 0.069439
v 0.037393 2.000000 0.045699
v -0.011859 2.000000 -0.002732
v 0.069620 1.409028 0.033065
v 0.059685 2.154654 0.626566
v 0.065153 2.064593 0.732676
v 0.896251 1.484205 0.070232
v 0.790000 1.574265 0.070232
v 0.197797 0.828640 0.029768
v 0.091546 0.918700 0.029768
v 0.064152 1.448988 -0.102729
v 0.069620 1.571943 -0.037519
v 0.059685 1.991739 -0.893072
v 0.065153 2.114694 -0.827862
v -0.156689 2.285939 -1.233986
v -0.092446 1.383074 -0.865566
v 0.952093 3.188805 -0.131216
v 1.320513 2.285939 -0.195458
v 0.952093 1.383074 -0.131216
v 0.062649 3.562784 0.023879
v 0.217743 3.188805 0.913324
v 0.281986 2.285939 1.281744
v 0.217743 1.383074 0.913324
v 0.062649 1.009095 0.023879
v -0.826796 3.188805 0.178974
v -1.195216 2.285939 0.243216
v -0.826796 1.383074 0.178974
v -0.092446 3.188804 -0.865566
v 0.484783 1.193645 0.379290
v 0.562497 1.101271 -0.392747
v 1.062689 1.719588 0.374533
v 1.140402 1.627214 -0.397504
v 0.293242 0.838138 -0.392149
v -0.260210 0.745764 0.151700
v -0.154097 1.364080 -0.758053
v -0.707548 1.271706 -0.214204
v 0.463859 1.602992 -0.048590
v -0.309838 1.510617 0.010345
v 0.357790 2.128934 -0.616699
v -0.415907 2.036560 -0.557763
v -0.092446 3.188805 -0.865566
v -0.092446 1.383074 -0.865566
v 0.217743 3.188805 0.913324
v 0.217743 1.383074 0.913324
v -0.092446 3.188805 -0.865566
v -0.092446 1.383074 -0.865566
v 0.217743 3.188805 0.913324
v 0.217743 1.383074 0.913324
v 0.952093 3.188805 -0.131216
v 0.952093 1.383074 -0.131216
v -0.826796 3.188805 0.178974
v -0.826796 1.383074 0.178974
v 0.484783 1.193645 0.379290
v 0.562497 1.101271 -0.392747
v 1.062689 1.719588 0.374533
v 1.140402 1.627214 -0.397504
v 0.293242 0.838138 -0.392149
v -0.260210 0.745764 0.151700
v -0.154097 1.364080 -0.758053
v -0.707548 1.271706 -0.214204
vt 0.025000 0.900000
vt 0.225000 0.975000
vt 0.225000 0.900000
vt 0.025000 0.975000
vt 0.225000 0.900000
vt 0.025000 0.900000
vt 0.025000 0.775000
vt 0.225000 0.975000
vt 0.025000 0.975000
vt 0.025000 0.975000
vt 0.225000 0.900000
vt 0.025000 0.900000
vt 0.025000 0.900000
vt 0.225000 0.975000
vt 0.225000 0.900000
vt 0.025000 0.900000
vt 0.225000 0.975000
vt 0.025000 0.975000
vt 0.025000 0.775000
vt 0.225000 0.975000
vt 0.025000 0.975000
vt 0.025000 0.775000
vt 0.225000 0.975000
vt 0.025000 0.975000
vt 0.025000 0.775000
vt 0.225000 0.975000
vt 0.025000 0.975000
vt 0.025000 0.775000
vt 0.225000 0.975000
vt 0.025000 0.975000
vt 0.225000 0.900000
vt 0.025000 0.975000
vt 0.025000 0.900000
vt 0.225000 0.900000
vt 0.025000 0.975000
vt 0.025000 0.900000
vt 0.025000 0.900000
vt 0.225000 0.975000
vt 0.025000 0.975000
vt 0.237957 0.259123
vt 0.005448 0.491632
vt 0.005448 0.259123
vt 0.005448 0.259123
vt 0.237957 0.259123
vt 0.237957 0.491632
vt 0.005448 0.259123
vt 0.237957 0.259123
vt 0.237957 0.491632
vt 0.237957 0.259123
vt 0.005448 0.491632
vt 0.005448 0.259123
vt 0.237957 0.259123
vt 0.237957 0.491632
vt 0.237957 0.259123
vt 0.005448 0.491632
vt 0.005448 0.259123
vt 0.237957 0.259123
vt 0.005448 0.491632
vt 0.005448 0.259123
vt 0.005448 0.259123
vt 0.237957 0.491632
vt 0.005448 0.259123
vt 0.237957 0.491632
vt 0.237957 0.259123
vt 0.237957 0.491632
vt 0.005448 0.259123
vt 0.005448 0.491632
vt 0.237957 0.259123
vt 0.005448 0.491632
vt 0.005448 0.259123
vt 0.005448 0.259123
vt 0.237957 0.491632
vt 0.005448 0.491632
vt 0.005448 0.259123
vt 0.237957 0.491632
vt 0.237957 0.259123
vt 0.237957 0.491632
vt 0.237957 0.259123
vt 0.005448 0.491632
vt 0.005448 0.259123
vt 0.246733 0.511880
vt 0.010650 0.747963
vt 0.010650 0.511880
vt 0.246733 0.511880
vt 0.010650 0.747963
vt 0.010650 0.511880
vt 0.246733 0.511880
vt 0.010650 0.747963
vt 0.010650 0.511880
vt 0.227740 0.276197
vt 0.009563 0.494374
vt 0.009563 0.276197
vt 0.009563 0.494374
vt 0.227740 0.276197
vt 0.009563 0.276197
vt 0.227740 0.276197
vt 0.009563 0.494374
vt 0.009563 0.276197
vt 0.009563 0.494374
vt 0.227740 0.276197
vt 0.009563 0.276197
vt 0.010650 0.747963
vt 0.246733 0.511880
vt 0.010650 0.511880
vt 0.010650 0.747963
vt 0.246733 0.511880
vt 0.010650 0.511880
vt 0.025000 0.975000
vt 0.225000 0.975000
vt 0.225000 0.775000
vt 0.225000 0.975000
vt 0.025000 0.975000
vt 0.225000 0.900000
vt 0.225000 0.775000
vt 0.225000 0.775000
vt 0.225000 0.775000
vt 0.225000 0.775000
vt 0.225000 0.975000
vt 0.225000 0.975000
vt 0.225000 0.900000
vt 0.237957 0.491632
vt 0.237957 0.491632
vt 0.237957 0.259123
vt 0.237957 0.491632
vt 0.237957 0.259123
vt 0.246733 0.747963
vt 0.246733 0.747963
vt 0.246733 0.747963
vt 0.227740 0.494374
vt 0.227740 0.494374
vt 0.227740 0.494374
vt 0.227740 0.494374
vt 0.246733 0.747963
vt 0.246733 0.747963
vn -0.9992 0.0304 0.0265
vn -0.0275 -0.0324 0.9991
vn 0.5875 0.0296 -0.8087
vn -0.9992 -0.0324 0.0240
vn -0.0359 0.0228 -0.9991
vn 0.0359 -0.0228 0.9991
vn 0.9510 0.0143 0.3090
vn -0.0000 0.0580 0.9983
vn -0.9483 0.0755 0.3081
vn -0.5872 0.0450 -0.8082
vn 0.9992 0.0324 -0.0240
vn 0.0275 0.0324 -0.9991
vn 0.9992 -0.0304 -0.0265
vn 0.5519 -0.2811 -0.7851
vn 0.2907 0.8629 -0.4135
vn 0.2907 -0.8629 -0.4135
vn 0.5519 0.2811 -0.7851
vn 0.4135 -0.8629 0.2907
vn 0.7851 0.2811 0.5519
vn 0.7851 -0.2811 0.5519
vn 0.4135 0.8629 0.2907
vn -0.2907 0.8629 0.4135
vn -0.2907 -0.8629 0.4135
vn -0.5519 0.2811 0.7851
vn -0.5519 -0.2811 0.7851
vn -0.7851 -0.2811 -0.5519
vn -0.4135 0.8629 -0.2907
vn -0.4135 -0.8629 -0.2907
vn -0.7851 0.2811 -0.5519
vn 0.6657 -0.7301 0.1544
vn -0.4131 -0.7301 -0.5444
vn 0.0352 -0.7301 -0.6825
vn 0.1718 0.0000 0.9851
vn -0.9851 0.0000 0.1718
vn 0.9851 0.0000 -0.1718
vn -0.1718 0.0000 -0.9851
vn -0.6657 0.7301 -0.1544
vn 0.4131 0.7301 0.5444
vn 0.2880 0.0532 -0.9562
vn 0.9767 0.0492 -0.2089
vn -0.2837 0.0442 0.9579
vn -0.6980 0.0953 0.7098
vn -0.9864 0.0920 -0.1360
s off
f 39/1/1 42/2/1 41/3/1
f 37/4/2 36/5/2 38/6/2
f 1/7/3 28/8/3 3/9/3
f 32/10/4 33/11/4 4/12/4
f 6/13/5 10/14/5 8/15/5
f 15/16/6 12/17/6 13/18/6
f 3/19/7 29/20/7 5/21/7
f 5/22/8 30/23/8 7/24/8
f 7/25/9 31/26/9 9/27/9
f 9/28/10 11/29/10 1/30/10
f 18/31/11 17/32/11 16/33/11
f 21/34/12 22/35/12 23/36/12
f 24/37/13 27/38/13 25/39/13
f 43/40/14 47/41/14 44/42/14
f 56/43/15 48/44/15 45/45/15
f 52/46/16 44/47/16 47/48/16
f 56/49/17 46/50/17 43/51/17
f 52/46/18 47/52/18 51/53/18
f 45/54/19 50/55/19 46/56/19
f 46/57/20 51/58/20 47/59/20
f 45/60/21 48/44/21 49/61/21
f 49/62/22 48/44/22 53/63/22
f 52/46/23 51/64/23 55/65/23
f 50/66/24 53/63/24 54/67/24
f 50/68/25 55/69/25 51/70/25
f 55/71/26 43/72/26 44/73/26
f 53/74/27 48/44/27 56/75/27
f 52/46/28 55/76/28 44/77/28
f 53/78/29 43/79/29 54/80/29
f 58/81/30 59/82/30 57/83/30
f 62/84/31 63/85/31 61/86/31
f 66/87/32 67/88/32 65/89/32
f 45/90/33 55/91/33 47/92/33
f 72/93/34 69/94/34 70/95/34
f 73/96/35 76/97/35 74/98/35
f 80/99/36 77/100/36 78/101/36
f 83/102/37 82/103/37 81/104/37
f 87/105/38 86/106/38 85/107/38
f 39/1/1 40/108/1 42/2/1
f 37/4/2 35/109/2 36/5/2
f 1/7/39 11/110/39 28/8/39
f 32/10/4 34/111/4 33/11/4
f 6/13/5 2/112/5 10/14/5
f 15/16/6 14/113/6 12/17/6
f 3/19/40 28/114/40 29/20/40
f 5/22/41 29/115/41 30/23/41
f 7/25/42 30/116/42 31/26/42
f 9/28/43 31/117/43 11/29/43
f 18/31/11 19/118/11 17/32/11
f 21/34/12 20/119/12 22/35/12
f 24/37/13 26/120/13 27/38/13
f 43/40/14 46/121/14 47/41/14
f 56/49/17 45/45/17 46/50/17
f 45/54/19 49/61/19 50/55/19
f 46/57/20 50/122/20 51/58/20
f 50/66/24 49/123/24 53/63/24
f 50/68/25 54/124/25 55/69/25
f 55/71/26 54/125/26 43/72/26
f 53/78/29 56/75/29 43/79/29
f 58/81/30 60/126/30 59/82/30
f 62/84/31 64/127/31 63/85/31
f 66/87/32 68/128/32 67/88/32
f 45/90/33 53/129/33 55/91/33
f 72/93/34 71/130/34 69/94/34
f 73/96/35 75/131/35 76/97/35
f 80/99/36 79/132/36 77/100/36
f 83/102/37 84/133/37 82/103/37
f 87/105/38 88/134/38 86/106/38
