# Blender v2.79 (sub 0) OBJ File: ''
# www.blender.org
v 8.200000 2.162391 4.399999
v -7.200000 2.162392 -4.400001
v 8.200000 2.162392 -4.400001
v -7.200000 12.640254 -2.451354
v -7.200000 11.213752 -3.877858
v -7.200000 9.265110 -4.399995
v 8.200000 6.562393 -4.400001
v 8.199998 6.562391 4.400000
v -7.200000 2.162391 4.399999
v -7.200000 6.562391 4.400000
v -7.200000 6.562393 -4.400001
v 8.200000 9.265110 -4.399995
v -7.200000 13.162393 -0.502710
v 8.200000 13.162393 0.502721
v 8.200000 13.162393 -0.502708
v -2.800000 -0.037609 4.619999
v -7.200000 4.362391 4.619999
v -7.200000 -0.037609 4.619999
v -7.200000 9.265106 4.400005
v 8.200000 11.213752 -3.877858
v 8.200000 12.640254 -2.451351
v -7.200000 13.162393 0.502721
v 8.200000 12.640254 2.451364
v -7.200000 12.640254 2.451362
v 8.199998 11.213750 3.877871
v -7.200000 11.213750 3.877866
v 8.199998 9.265106 4.400005
v 8.200000 -0.037609 4.619999
v 3.800000 4.362391 4.619999
v 3.800000 -0.037609 4.619999
v -7.200000 4.362393 -4.620000
v -2.800000 -0.037608 -4.620001
v -7.200000 -0.037608 -4.620001
v 3.800000 4.362393 -4.620000
v 8.200000 -0.037608 -4.620001
v 3.800000 -0.037608 -4.620001
v -7.200000 4.362391 4.619999
v -2.800000 -0.037609 4.619999
v -7.200000 -0.037609 4.619999
v 3.800000 4.362391 4.619999
v 8.200000 -0.037609 4.619999
v 3.800000 -0.037609 4.619999
v -2.800000 -0.037608 -4.620001
v -7.200000 4.362393 -4.620000
v -7.200000 -0.037608 -4.620001
v 8.200000 -0.037608 -4.620001
v 3.800000 4.362393 -4.620000
v 3.800000 -0.037608 -4.620001
v -2.800000 4.362391 4.619999
v 8.200000 4.362391 4.619999
v -2.800000 4.362393 -4.620000
v 8.200000 4.362393 -4.620000
v -2.800000 4.362391 4.619999
v 8.200000 4.362391 4.619999
v -2.800000 4.362393 -4.620000
v 8.200000 4.362393 -4.620000
vt 0.497890 0.342601
vt 0.015454 0.066924
vt 0.497890 0.066924
vt 0.577244 0.127969
vt 0.621931 0.083281
vt 0.682976 0.066924
vt 0.767644 0.342601
vt 0.905483 0.066924
vt 0.905483 0.342601
vt 0.980821 0.617362
vt 0.498386 0.479523
vt 0.980821 0.479523
vt 0.767644 0.342601
vt 0.905483 0.066924
vt 0.905483 0.342601
vt 0.980821 0.617362
vt 0.498386 0.479523
vt 0.980821 0.479523
vt 0.497889 0.343098
vt 0.015454 0.427766
vt 0.015454 0.343098
vt 0.015455 0.617362
vt 0.497889 0.585864
vt 0.497889 0.617362
vt 0.641250 0.701508
vt 0.420709 0.922049
vt 0.420709 0.701508
vt 0.497889 0.343098
vt 0.015454 0.427767
vt 0.015454 0.343099
vt 0.497889 0.427766
vt 0.015454 0.490964
vt 0.497889 0.490964
vt 0.015454 0.554163
vt 0.497889 0.554163
vt 0.015454 0.617362
vt 0.015454 0.617362
vt 0.497889 0.554163
vt 0.497889 0.617362
vt 0.015454 0.554163
vt 0.497889 0.490964
vt 0.015454 0.490965
vt 0.497889 0.427766
vt 0.577244 0.127969
vt 0.621931 0.083281
vt 0.682976 0.066924
vt 0.641250 0.701508
vt 0.420709 0.922049
vt 0.420709 0.701508
vt 0.420709 0.922049
vt 0.641250 0.701508
vt 0.420709 0.701508
vt 0.420709 0.922049
vt 0.641250 0.701508
vt 0.420709 0.701508
vt 0.420709 0.922049
vt 0.641250 0.701508
vt 0.420709 0.701508
vt 0.420709 0.922049
vt 0.641250 0.701508
vt 0.420709 0.701508
vt 0.641250 0.701508
vt 0.420709 0.922049
vt 0.420709 0.701508
vt 0.641250 0.701508
vt 0.420709 0.922049
vt 0.420709 0.701508
vt 0.015454 0.342601
vt 0.767644 0.066924
vt 0.682976 0.342601
vt 0.621931 0.326244
vt 0.560886 0.220511
vt 0.577244 0.281556
vt 0.560886 0.189014
vt 0.767644 0.066924
vt 0.498386 0.617362
vt 0.498386 0.617362
vt 0.015455 0.585864
vt 0.641250 0.922049
vt 0.497889 0.617362
vt 0.682976 0.342601
vt 0.621931 0.326244
vt 0.560886 0.220511
vt 0.577244 0.281556
vt 0.560886 0.189014
vt 0.641250 0.922049
vt 0.641250 0.922049
vt 0.641250 0.922049
vt 0.641250 0.922049
vt 0.641250 0.922049
vt 0.641250 0.922049
vt 0.641250 0.922049
vn 0.0000 -1.0000 -0.0000
vn -1.0000 0.0000 0.0000
vn 1.0000 0.0000 0.0000
vn 0.0000 -0.0000 1.0000
vn 0.0000 0.0000 -1.0000
vn 0.0000 1.0000 0.0000
vn 0.0000 0.2588 -0.9659
vn 0.0000 0.7071 -0.7071
vn 0.0000 0.9659 -0.2588
vn -0.0000 0.9659 0.2588
vn -0.0000 0.7071 0.7071
vn -0.0000 0.2588 0.9659
s 1
f 1/1/1 2/2/1 3/3/1
f 4/4/2 5/5/2 6/6/2
f 7/7/3 1/8/3 3/9/3
f 8/10/4 9/11/4 1/12/4
f 10/13/2 2/14/2 9/15/2
f 3/16/5 11/17/5 7/18/5
f 11/19/5 12/20/5 7/21/5
f 13/22/6 14/23/6 15/24/6
f 16/25/4 17/26/4 18/27/4
f 8/28/4 19/29/4 10/30/4
f 6/31/7 20/32/7 12/20/7
f 5/33/8 21/34/8 20/32/8
f 4/35/9 15/36/9 21/34/9
f 22/37/10 23/38/10 14/39/10
f 24/40/11 25/41/11 23/38/11
f 26/42/12 27/43/12 25/41/12
f 23/44/3 25/45/3 27/46/3
f 28/47/4 29/48/4 30/49/4
f 31/50/5 32/51/5 33/52/5
f 34/53/5 35/54/5 36/55/5
f 37/56/5 38/57/5 39/58/5
f 40/59/5 41/60/5 42/61/5
f 43/62/4 44/63/4 45/64/4
f 46/65/4 47/66/4 48/67/4
f 1/1/1 9/68/1 2/2/1
f 6/6/2 11/69/2 10/13/2
f 10/13/2 19/70/2 6/6/2
f 19/70/2 26/71/2 22/72/2
f 6/6/2 19/70/2 22/72/2
f 26/71/2 24/73/2 22/72/2
f 22/72/2 13/74/2 6/6/2
f 13/74/2 4/4/2 6/6/2
f 7/7/3 8/75/3 1/8/3
f 8/10/4 10/76/4 9/11/4
f 10/13/2 11/69/2 2/14/2
f 3/16/5 2/77/5 11/17/5
f 11/19/5 6/31/5 12/20/5
f 13/22/6 22/78/6 14/23/6
f 16/25/4 49/79/4 17/26/4
f 8/28/4 27/43/4 19/29/4
f 6/31/7 5/33/7 20/32/7
f 5/33/8 4/35/8 21/34/8
f 4/35/9 13/80/9 15/36/9
f 22/37/10 24/40/10 23/38/10
f 24/40/11 26/42/11 25/41/11
f 26/42/12 19/29/12 27/43/12
f 27/46/3 8/75/3 7/7/3
f 7/7/3 12/81/3 27/46/3
f 12/81/3 20/82/3 15/83/3
f 27/46/3 12/81/3 15/83/3
f 20/82/3 21/84/3 15/83/3
f 15/83/3 14/85/3 27/46/3
f 14/85/3 23/44/3 27/46/3
f 28/47/4 50/86/4 29/48/4
f 31/50/5 51/87/5 32/51/5
f 34/53/5 52/88/5 35/54/5
f 37/56/5 53/89/5 38/57/5
f 40/59/5 54/90/5 41/60/5
f 43/62/4 55/91/4 44/63/4
f 46/65/4 56/92/4 47/66/4
