# Blender v2.79 (sub 0) OBJ File: ''
# www.blender.org
v -0.306343 -0.211323 0.306343
v -0.245074 0.390334 0.276985
v -0.196060 -0.101040 0.012764
v -0.156848 0.302108 0.042122
v 0.306343 -0.211323 0.306343
v 0.245074 0.390334 0.276985
v 0.196060 -0.101040 0.012764
v 0.156848 0.302108 0.042122
v -0.306343 -0.849538 0.306343
v 0.306343 -0.849538 0.306343
v 0.000000 -0.211323 0.306343
v 0.000000 -0.211323 -0.114879
v -0.245074 -0.338966 -0.049270
v -0.245074 -0.338966 0.255796
v 0.000000 -0.338966 -0.049270
v 0.245074 -0.338966 0.255796
v 0.245074 -0.338966 -0.049270
v 0.000000 -0.338966 0.306343
v 0.245074 -0.977181 0.222099
v 0.245074 -0.977181 0.065098
v 0.061269 -0.977181 0.222099
v 0.061269 -0.977181 0.065098
v -0.245074 -0.977181 0.065098
v -0.245074 -0.977181 0.222099
v -0.061269 -0.977181 0.065098
v -0.061269 -0.977181 0.222099
v -0.306343 -0.211323 -0.076586
v -0.306343 -0.849538 -0.076586
v 0.306343 -0.211323 -0.076586
v 0.306343 -0.849538 -0.076586
v -0.282091 0.495921 0.218269
v -0.237977 0.451807 0.100838
v 0.237977 0.451807 0.100838
v 0.282091 0.495921 0.218269
v 0.000256 0.583975 -0.025417
v -0.002253 0.467683 0.063712
v 0.137798 0.755504 0.125405
v 0.191433 0.630158 0.160690
v 0.132930 0.500339 0.195310
v 0.003442 0.818359 0.110124
v 0.002253 0.748095 0.255395
v -0.000256 0.682860 0.344524
v -0.002615 0.537605 0.325300
v -0.003442 0.448476 0.208984
v -0.132930 0.760113 0.123798
v -0.191433 0.636677 0.158417
v -0.137798 0.504949 0.193703
v 0.002615 0.729230 -0.006192
v -0.306343 -0.211323 -0.076586
v -0.245074 0.390334 0.021699
v 0.306343 -0.211323 -0.076586
v 0.245074 0.390334 0.021699
v 0.178700 -0.211323 -0.076586
v 0.117431 0.390334 0.021699
v -0.178700 -0.211323 -0.076586
v -0.117431 0.390334 0.021699
v 0.178700 -0.849538 -0.076586
v -0.178700 -0.849538 -0.076586
v 0.245074 -0.977181 -0.190188
v 0.061269 -0.977181 -0.190188
v -0.245074 -0.977181 -0.190188
v -0.061269 -0.977181 -0.190188
v 0.245074 -0.913359 -0.190188
v 0.061269 -0.913359 -0.190188
v -0.245074 -0.913359 -0.190188
v -0.061269 -0.913359 -0.190188
v 0.245074 -0.913359 -0.190188
v 0.061269 -0.913359 -0.190188
v -0.245074 -0.913359 -0.190188
v -0.061269 -0.913359 -0.190188
v 0.245074 -0.875066 0.071423
v 0.061269 -0.875066 0.071423
v -0.245074 -0.875066 0.071423
v -0.061269 -0.875066 0.071423
v 0.245074 -0.913359 -0.190188
v 0.061269 -0.913359 -0.190188
v -0.245074 -0.913359 -0.190188
v -0.061269 -0.913359 -0.190188
v 0.003442 0.767302 -0.017519
v 0.003442 0.894945 -0.017519
v 0.131085 0.767302 0.110124
v 0.131085 0.958766 0.110124
v 0.003442 0.767302 0.237766
v 0.003442 0.894945 0.237766
v -0.124201 0.767302 0.110124
v -0.124201 0.958766 0.110124
v 0.003442 0.767302 0.454759
v -0.341194 0.767302 0.110124
v 0.003442 0.767302 -0.234512
v 0.348078 0.767302 0.110124
v 0.003442 0.736204 0.454759
v -0.341194 0.736204 0.110124
v 0.003442 0.736204 -0.234512
v 0.348078 0.736204 0.110124
vt 0.467986 0.281792
vt 0.624765 0.222416
vt 0.645197 0.319806
vt 0.503768 0.210679
vt 0.503768 0.116778
vt 0.624765 0.105041
vt 0.467986 0.045665
vt 0.645197 0.007651
vt 0.139541 0.379857
vt 0.122062 0.198336
vt 0.213591 0.199933
vt 0.864487 0.755430
vt 0.937846 0.798390
vt 0.864487 0.798390
vt 0.696713 0.618161
vt 0.814915 0.570068
vt 0.790613 0.618194
vt 0.305119 0.007651
vt 0.305119 0.198336
vt 0.687348 0.023413
vt 0.699283 0.113947
vt 0.597783 0.928037
vt 0.547654 0.735055
vt 0.594620 0.736757
vt 0.276854 0.989415
vt 0.290318 0.788134
vt 0.348610 0.974163
vt 0.791127 0.798390
vt 0.794005 0.723396
vt 0.687348 0.304044
vt 0.185584 0.992349
vt 0.134521 0.799948
vt 0.189529 0.801083
vt 0.110680 0.992043
vt 0.089034 0.788133
vt 0.236501 0.799573
vt 0.506526 0.924731
vt 0.493884 0.723396
vt 0.672687 0.928038
vt 0.695166 0.724218
vt 0.775825 0.901698
vt 0.649632 0.735847
vt 0.007651 0.198336
vt 0.122062 0.007651
vt 0.419530 0.007651
vt 0.672444 0.570019
vt 0.828132 0.532523
vt 0.452723 0.099427
vt 0.434832 0.063871
vt 0.452723 0.228030
vt 0.817064 0.496355
vt 0.659252 0.532464
vt 0.670345 0.496304
vt 0.745435 0.278698
vt 0.714586 0.247849
vt 0.776285 0.247849
vt 0.788935 0.051397
vt 0.849944 0.007651
vt 0.865717 0.053671
vt 0.847882 0.101355
vt 0.786991 0.091381
vt 0.283009 0.764534
vt 0.282258 0.720330
vt 0.326356 0.714685
vt 0.346987 0.626523
vt 0.282115 0.656997
vt 0.284216 0.617088
vt 0.282154 0.682844
vt 0.776285 0.309548
vt 0.353036 0.674728
vt 0.207924 0.675483
vt 0.215105 0.617089
vt 0.237144 0.716120
vt 0.714586 0.309548
vt 0.729944 0.007651
vt 0.714586 0.052434
vt 0.728942 0.094549
vt 0.192621 0.593247
vt 0.092032 0.766201
vt 0.078429 0.583302
vt 0.434832 0.511498
vt 0.511159 0.696446
vt 0.434832 0.692741
vt 0.585711 0.528704
vt 0.547548 0.708093
vt 0.040801 0.589932
vt 0.045280 0.395159
vt 0.549322 0.517056
vt 0.643950 0.346756
vt 0.820448 0.399619
vt 0.874135 0.380978
vt 0.820448 0.380978
vt 0.791587 0.313295
vt 0.845281 0.294672
vt 0.845275 0.313314
vt 0.874135 0.400556
vt 0.820448 0.400556
vt 0.791594 0.293717
vt 0.845273 0.293735
vt 0.418933 0.867277
vt 0.363913 0.788133
vt 0.418933 0.788133
vt 0.738396 0.688516
vt 0.659252 0.633496
vt 0.738396 0.633496
vt 0.793491 0.247849
vt 0.869901 0.266979
vt 0.791587 0.278415
vt 0.822341 0.365675
vt 0.898758 0.346571
vt 0.898758 0.365675
vt 0.793020 0.889531
vt 0.869437 0.870427
vt 0.869437 0.889532
vt 0.870271 0.843662
vt 0.797428 0.813692
vt 0.873038 0.824760
vt 0.829661 0.116657
vt 0.777516 0.179956
vt 0.777042 0.169648
vt 0.714586 0.232546
vt 0.767204 0.179556
vt 0.817379 0.690453
vt 0.760067 0.690453
vt 0.811011 0.633496
vt 0.766731 0.169247
vt 0.287191 0.484122
vt 0.415500 0.601786
vt 0.207924 0.601786
vt 0.753699 0.633496
vt 0.270921 0.474165
vt 0.315561 0.471149
vt 0.312253 0.474755
vt 0.297193 0.524513
vt 0.416275 0.395159
vt 0.327006 0.472432
vt 0.208699 0.395159
vt 0.337008 0.512823
vt 0.659252 0.335108
vt 0.805145 0.481002
vt 0.659252 0.481002
vt 0.307426 0.515424
vt 0.262786 0.518441
vt 0.266094 0.514834
vt 0.310663 0.518441
vt 0.267684 0.471149
vt 0.675259 0.163729
vt 0.287641 0.379857
vt 0.934969 0.723396
vt 0.699283 0.213510
vt 0.007651 0.965282
vt 0.434832 0.909186
vt 0.007651 0.007651
vt 0.419530 0.198336
vt 0.434832 0.263586
vt 0.789102 0.012601
vt 0.168160 0.772831
vt 0.054404 0.772831
vt 0.007651 0.401789
vt 0.607560 0.335108
vt 0.874135 0.399619
vt 0.791594 0.294654
vt 0.363913 0.867277
vt 0.659252 0.688516
vt 0.869908 0.247875
vt 0.820448 0.335108
vt 0.791127 0.858965
vt 0.791127 0.843662
vt 0.829661 0.231735
vt 0.714586 0.117469
vt 0.805145 0.335108
vn -0.9427 0.0802 -0.3240
vn 0.0000 0.0726 -0.9974
vn 0.9427 0.0802 -0.3240
vn 0.0000 0.0487 0.9988
vn 0.0000 -0.4571 -0.8894
vn 0.0000 0.3651 -0.9310
vn 0.0000 0.0000 1.0000
vn 0.9794 0.2018 0.0000
vn -1.0000 0.0000 0.0000
vn 0.0000 -0.1764 -0.9843
vn -0.3920 0.3069 -0.8673
vn -0.8713 -0.2512 -0.4217
vn 0.0000 -0.0527 0.9986
vn -0.9954 -0.0956 0.0000
vn 1.0000 -0.0000 0.0000
vn 0.9954 -0.0956 0.0000
vn -0.2008 -0.1092 0.9735
vn 0.0000 0.9361 -0.3517
vn 0.8927 -0.4131 -0.1801
vn -0.8927 -0.4131 -0.1801
vn 0.0000 0.4860 0.8740
vn 0.3423 -0.9318 -0.1204
vn 0.6837 0.0887 -0.7243
vn 0.6743 -0.4583 -0.5790
vn 0.4028 0.7251 -0.5585
vn 0.6725 -0.1078 0.7322
vn 0.3477 0.8430 0.4106
vn 0.3414 -0.7473 0.5702
vn 0.6243 0.6219 0.4727
vn -0.6044 0.6509 0.4594
vn -0.6844 -0.0847 0.7241
vn -0.3232 0.8529 0.4099
vn -0.3733 -0.7351 0.5659
vn -0.3724 -0.9197 -0.1246
vn -0.6714 0.1128 -0.7324
vn -0.6826 -0.4352 -0.5870
vn -0.3717 0.7382 -0.5630
vn -0.9949 0.1013 0.0000
vn 0.9949 0.1013 0.0000
vn 0.0000 0.1612 -0.9869
vn 0.0000 0.0000 -1.0000
vn 0.0000 0.9895 -0.1448
vn 0.7071 0.0000 -0.7071
vn 0.7071 0.0000 0.7071
vn -0.4472 0.8944 0.0000
vn -0.7071 0.0000 0.7071
vn -0.7071 0.0000 -0.7071
vn 0.0000 1.0000 0.0000
vn 0.4472 0.8944 0.0000
vn 0.0000 -1.0000 0.0000
vn -0.9144 0.1172 -0.3875
vn 0.0000 0.7567 -0.6538
vn 0.9144 0.1172 -0.3875
vn 0.3920 0.3069 -0.8673
vn 0.8713 -0.2512 -0.4217
vn -0.9794 0.2018 0.0000
vn 0.2008 -0.1092 0.9735
vn 0.6866 0.0844 -0.7221
vn 0.6070 0.4451 0.6583
vn -0.5956 0.4658 0.6544
vn -0.6753 0.1075 -0.7297
s off
f 2/1/1 3/2/1 1/3/1
f 4/4/2 8/5/2 7/6/2
f 7/6/3 6/7/3 5/8/3
f 2/9/4 1/10/4 11/11/4
f 12/12/5 17/13/5 15/14/5
f 4/15/6 33/16/6 8/17/6
f 10/18/7 5/19/7 11/11/7
f 7/6/8 16/20/8 17/21/8
f 14/22/9 23/23/9 24/24/9
f 17/25/10 22/26/10 15/27/10
f 12/12/11 13/28/11 3/29/11
f 3/2/12 14/30/12 1/3/12
f 16/31/13 21/32/13 19/33/13
f 18/34/14 22/35/14 21/32/14
f 16/31/15 20/36/15 17/25/15
f 13/37/10 25/38/10 23/23/10
f 18/39/16 25/40/16 15/41/16
f 14/22/17 26/42/17 18/39/17
f 27/43/9 9/44/9 1/10/9
f 30/45/15 5/19/15 10/18/15
f 32/46/18 34/47/18 33/16/18
f 6/7/19 33/48/19 34/49/19
f 2/1/20 32/50/20 4/4/20
f 6/51/21 31/52/21 2/53/21
f 44/54/22 36/55/22 39/56/22
f 35/57/23 37/58/23 38/59/23
f 35/57/24 39/60/24 36/61/24
f 48/62/25 40/63/25 37/64/25
f 39/65/26 42/66/26 43/67/26
f 37/64/27 40/63/27 41/68/27
f 44/54/28 39/56/28 43/69/28
f 38/70/29 41/68/29 42/66/29
f 41/68/30 46/71/30 42/66/30
f 42/66/31 47/72/31 43/67/31
f 41/68/32 40/63/32 45/73/32
f 44/54/33 43/69/33 47/74/33
f 44/54/34 47/74/34 36/55/34
f 45/75/35 35/57/35 46/76/35
f 46/76/36 36/61/36 47/77/36
f 45/73/37 40/63/37 48/62/37
f 1/78/38 50/79/38 49/80/38
f 5/81/39 52/82/39 6/83/39
f 52/82/40 53/84/40 54/85/40
f 50/79/40 55/86/40 49/80/40
f 55/86/41 28/87/41 49/80/41
f 51/88/41 57/89/41 53/84/41
f 65/90/41 62/91/41 61/92/41
f 60/93/41 63/94/41 59/95/41
f 65/90/7 70/96/7 69/97/7
f 63/94/7 68/98/7 67/99/7
f 73/100/42 70/101/42 69/102/42
f 68/103/42 71/104/42 67/105/42
f 20/106/15 75/107/15 71/108/15
f 23/109/9 77/110/9 61/111/9
f 22/112/9 76/113/9 60/114/9
f 78/115/15 25/116/15 62/117/15
f 80/118/43 81/119/43 79/120/43
f 81/119/44 84/121/44 83/122/44
f 82/123/45 80/124/45 84/125/45
f 84/121/46 85/126/46 83/122/46
f 85/126/47 80/118/47 79/120/47
f 83/127/48 90/128/48 89/129/48
f 84/125/49 80/124/49 86/130/49
f 87/131/44 94/132/44 90/133/44
f 85/134/48 87/135/48 90/128/48
f 81/136/48 89/129/48 88/137/48
f 79/138/48 88/137/48 87/135/48
f 92/139/50 94/140/50 91/141/50
f 89/142/47 92/143/47 88/144/47
f 90/133/43 93/145/43 89/142/43
f 88/144/46 91/146/46 87/131/46
f 2/1/51 4/4/51 3/2/51
f 12/147/52 3/2/52 7/6/52
f 3/2/2 4/4/2 7/6/2
f 7/6/53 8/5/53 6/7/53
f 11/11/4 5/19/4 6/148/4
f 6/148/4 2/9/4 11/11/4
f 12/12/54 7/149/54 17/13/54
f 4/15/6 32/46/6 33/16/6
f 11/11/7 1/10/7 9/44/7
f 9/44/7 10/18/7 11/11/7
f 7/6/55 5/8/55 16/20/55
f 14/22/9 13/37/9 23/23/9
f 17/25/10 20/36/10 22/26/10
f 12/12/5 15/14/5 13/28/5
f 3/2/56 13/150/56 14/30/56
f 16/31/57 18/34/57 21/32/57
f 18/34/14 15/151/14 22/35/14
f 16/31/15 19/33/15 20/36/15
f 13/37/10 15/152/10 25/38/10
f 18/39/16 26/42/16 25/40/16
f 14/22/13 24/24/13 26/42/13
f 27/43/9 28/153/9 9/44/9
f 30/45/15 29/154/15 5/19/15
f 32/46/18 31/52/18 34/47/18
f 6/7/19 8/5/19 33/48/19
f 2/1/20 31/155/20 32/50/20
f 6/51/21 34/47/21 31/52/21
f 35/57/58 48/156/58 37/58/58
f 35/57/24 38/59/24 39/60/24
f 39/65/26 38/70/26 42/66/26
f 38/70/59 37/64/59 41/68/59
f 41/68/60 45/73/60 46/71/60
f 42/66/31 46/71/31 47/72/31
f 45/75/61 48/156/61 35/57/61
f 46/76/36 35/57/36 36/61/36
f 1/78/38 2/157/38 50/79/38
f 5/81/39 51/88/39 52/82/39
f 52/82/40 51/88/40 53/84/40
f 50/79/40 56/158/40 55/86/40
f 55/86/41 58/159/41 28/87/41
f 51/88/41 30/160/41 57/89/41
f 65/90/41 66/161/41 62/91/41
f 60/93/41 64/162/41 63/94/41
f 65/90/7 66/161/7 70/96/7
f 63/94/7 64/162/7 68/98/7
f 73/100/42 74/163/42 70/101/42
f 68/103/42 72/164/42 71/104/42
f 20/106/15 59/165/15 75/107/15
f 23/109/9 73/166/9 77/110/9
f 22/112/9 72/167/9 76/113/9
f 78/115/15 74/168/15 25/116/15
f 80/118/43 82/169/43 81/119/43
f 81/119/44 82/169/44 84/121/44
f 84/121/46 86/170/46 85/126/46
f 85/126/47 86/170/47 80/118/47
f 83/127/50 85/134/50 90/128/50
f 87/131/44 91/146/44 94/132/44
f 85/134/50 79/138/50 87/135/50
f 81/136/50 83/127/50 89/129/50
f 79/138/50 81/136/50 88/137/50
f 92/139/50 93/171/50 94/140/50
f 89/142/47 93/145/47 92/143/47
f 90/133/43 94/132/43 93/145/43
f 88/144/46 92/143/46 91/146/46
