# Blender v2.79 (sub 0) OBJ File: ''
# www.blender.org
v -23.165867 9.252848 -9.408328
v -0.332531 9.252848 -9.408328
v -0.332531 0.649064 11.741991
v -23.165867 9.252853 -30.525545
v -0.332531 9.252853 -30.525545
v -23.165867 24.872839 -30.525543
v 16.607704 17.029604 -30.525545
v 16.607704 17.029596 -9.408327
v 32.726414 17.029604 -30.525545
v 32.726414 17.029596 -9.408327
v 32.726414 14.483736 -9.408328
v 16.607704 14.483736 -9.408328
v 32.726414 14.483732 13.523657
v 16.607704 14.483732 13.523657
v 32.726414 -1.686956 13.523655
v 16.607704 -1.272984 13.523655
v 16.607704 21.058754 -9.408326
v -0.332531 13.282003 -9.408328
v -0.332531 4.678222 11.741992
v 1.690800 13.282003 -9.408328
v 1.690800 4.678222 11.741992
v 1.690800 10.481716 -9.408328
v 1.690800 2.433902 11.741991
v 16.607704 21.058754 -6.478738
v -0.332531 13.282002 -6.478739
v 16.607704 17.368040 -6.478739
v 16.607704 16.127350 -9.408327
v 16.607704 16.127350 -6.478739
v 16.607704 -1.272980 -9.408330
v -53.956123 -1.272984 13.523655
v 16.607704 -1.272989 47.178329
v 32.747822 -1.272984 13.523655
v -23.165867 0.649064 11.741991
v -0.332531 24.872839 -30.525543
v 16.607704 -1.686956 13.523655
v 1.690800 1.877933 11.741991
v -0.332531 2.433902 11.741991
v -0.332531 9.591289 -6.478740
v -53.956123 -1.272980 -9.408330
v -53.956123 -1.272989 47.178329
v 32.747822 -1.272989 47.178329
vt 0.129637 0.585592
vt 0.351781 0.449164
vt 0.323121 0.662016
vt 0.060647 0.704084
vt 0.186924 0.792610
vt 0.000087 0.790468
vt 0.403193 0.801451
vt 0.277249 0.903780
vt 0.355356 0.999913
vt 0.496485 0.885247
vt 0.481301 0.897584
vt 0.418377 0.789114
vt 0.633252 0.774124
vt 0.555145 0.677991
vt 0.729695 0.695764
vt 0.478791 0.584017
vt 0.360664 0.669765
vt 0.435186 0.798413
vt 0.377667 0.463399
vt 0.378950 0.671272
vt 0.395953 0.464905
vt 0.403179 0.663667
vt 0.397625 0.444621
vt 0.380883 0.658053
vt 0.455405 0.786700
vt 0.472399 0.762663
vt 0.475121 0.820735
vt 0.454902 0.832448
vt 0.342023 0.695140
vt 0.136855 0.163170
vt 0.679510 0.420934
vt 0.557003 0.680277
vt 0.172495 0.406306
vt 0.126364 0.878994
vt 0.651588 0.599631
vt 0.420183 0.457301
vt 0.379338 0.443115
vt 0.397876 0.634016
vt 0.000087 0.274293
vt 0.337573 0.000087
vt 0.757721 0.517195
vn 0.0000 0.9263 0.3768
vn 0.0000 1.0000 0.0000
vn 0.0000 -0.0000 1.0000
vn -0.4172 0.9088 0.0000
vn -1.0000 -0.0000 0.0000
vn 0.0000 0.0000 -1.0000
vn 1.0000 0.0000 0.0000
s 1
f 1/1/1 3/2/1 2/3/1
f 2/3/2 4/4/2 1/1/2
f 5/5/3 6/6/3 4/4/3
f 5/5/4 8/7/4 7/8/4
f 8/7/2 9/9/2 7/8/2
f 8/7/3 11/10/3 10/11/3
f 12/12/2 13/13/2 11/10/2
f 14/14/3 15/15/3 13/13/3
f 12/12/5 16/16/5 14/14/5
f 8/7/6 18/17/6 17/18/6
f 2/3/5 19/19/5 18/17/5
f 19/19/1 20/20/1 18/17/1
f 21/21/7 22/22/7 20/20/7
f 19/19/3 23/23/3 21/21/3
f 17/18/4 25/24/4 24/25/4
f 25/24/3 26/26/3 24/25/3
f 17/18/7 28/27/7 27/28/7
f 29/29/2 30/30/2 16/16/2
f 30/30/2 31/31/2 16/16/2
f 31/31/2 32/32/2 16/16/2
f 1/1/1 33/33/1 3/2/1
f 2/3/2 5/5/2 4/4/2
f 5/5/3 34/34/3 6/6/3
f 5/5/4 2/3/4 8/7/4
f 8/7/2 10/11/2 9/9/2
f 8/7/3 12/12/3 11/10/3
f 12/12/2 14/14/2 13/13/2
f 14/14/3 35/35/3 15/15/3
f 12/12/5 29/29/5 16/16/5
f 8/7/6 2/3/6 18/17/6
f 2/3/5 3/2/5 19/19/5
f 19/19/1 21/21/1 20/20/1
f 21/21/7 36/36/7 22/22/7
f 19/19/3 37/37/3 23/23/3
f 17/18/4 18/17/4 25/24/4
f 25/24/3 38/38/3 26/26/3
f 17/18/7 24/25/7 28/27/7
f 29/29/2 39/39/2 30/30/2
f 30/30/2 40/40/2 31/31/2
f 31/31/2 41/41/2 32/32/2
